<svg xmlns="http://www.w3.org/2000/svg" viewBox="0 0 800 600" width="800" height="600">
  <defs>
    <linearGradient id="g" x1="0" y1="0" x2="0" y2="1">
      <stop offset="0%" stop-color="#12245B"/>
      <stop offset="100%" stop-color="#050B1F"/>
    </linearGradient>
  </defs>
  <rect width="800" height="600" fill="url(#g)"/>
  <circle cx="57" cy="93" r="0.6" fill="#ffffff" opacity="0.88"/>
<circle cx="753" cy="315" r="0.8" fill="#ffffff" opacity="0.45"/>
<circle cx="36" cy="595" r="1.4" fill="#ffffff" opacity="1.0"/>
<circle cx="653" cy="402" r="1.5" fill="#ffffff" opacity="0.9"/>
<circle cx="521" cy="380" r="1.2" fill="#ffffff" opacity="0.61"/>
<circle cx="274" cy="36" r="1.6" fill="#ffffff" opacity="0.55"/>
<circle cx="326" cy="389" r="1.1" fill="#ffffff" opacity="0.92"/>
<circle cx="168" cy="573" r="0.7" fill="#ffffff" opacity="0.46"/>
<circle cx="180" cy="332" r="0.7" fill="#ffffff" opacity="0.66"/>
<circle cx="368" cy="526" r="1.4" fill="#ffffff" opacity="0.43"/>
<circle cx="456" cy="424" r="1.5" fill="#ffffff" opacity="0.93"/>
<circle cx="781" cy="372" r="1.5" fill="#ffffff" opacity="0.55"/>
<circle cx="456" cy="165" r="1.7" fill="#ffffff" opacity="0.58"/>
<circle cx="756" cy="472" r="1.4" fill="#ffffff" opacity="0.47"/>
<circle cx="285" cy="510" r="1.2" fill="#ffffff" opacity="0.88"/>
<circle cx="362" cy="465" r="1.7" fill="#ffffff" opacity="0.62"/>
<circle cx="581" cy="570" r="1.4" fill="#ffffff" opacity="0.64"/>
<circle cx="227" cy="332" r="1.6" fill="#ffffff" opacity="0.88"/>
<circle cx="631" cy="274" r="1.5" fill="#ffffff" opacity="0.64"/>
<circle cx="310" cy="516" r="1.2" fill="#ffffff" opacity="0.66"/>
<circle cx="630" cy="416" r="0.9" fill="#ffffff" opacity="0.45"/>
<circle cx="524" cy="375" r="1.7" fill="#ffffff" opacity="0.74"/>
<circle cx="77" cy="349" r="1.4" fill="#ffffff" opacity="0.94"/>
<circle cx="195" cy="108" r="0.6" fill="#ffffff" opacity="0.76"/>
<circle cx="279" cy="232" r="1.4" fill="#ffffff" opacity="0.94"/>
<circle cx="772" cy="534" r="0.7" fill="#ffffff" opacity="0.49"/>
<circle cx="215" cy="61" r="1.0" fill="#ffffff" opacity="0.8"/>
<circle cx="32" cy="58" r="1.0" fill="#ffffff" opacity="0.42"/>
<circle cx="688" cy="24" r="0.6" fill="#ffffff" opacity="0.97"/>
<circle cx="25" cy="41" r="1.4" fill="#ffffff" opacity="0.31"/>
<circle cx="261" cy="130" r="1.6" fill="#ffffff" opacity="0.41"/>
<circle cx="188" cy="535" r="1.4" fill="#ffffff" opacity="0.57"/>
<circle cx="44" cy="253" r="0.7" fill="#ffffff" opacity="0.33"/>
<circle cx="352" cy="115" r="0.9" fill="#ffffff" opacity="0.64"/>
<circle cx="315" cy="459" r="1.2" fill="#ffffff" opacity="0.72"/>
<circle cx="46" cy="270" r="1.5" fill="#ffffff" opacity="0.9"/>
<circle cx="722" cy="157" r="1.1" fill="#ffffff" opacity="0.46"/>
<circle cx="676" cy="323" r="1.6" fill="#ffffff" opacity="0.32"/>
<circle cx="130" cy="530" r="1.3" fill="#ffffff" opacity="0.58"/>
<circle cx="527" cy="335" r="0.7" fill="#ffffff" opacity="0.97"/>
<circle cx="265" cy="268" r="1.3" fill="#ffffff" opacity="0.59"/>
<circle cx="18" cy="571" r="1.7" fill="#ffffff" opacity="0.77"/>
<circle cx="259" cy="34" r="0.7" fill="#ffffff" opacity="0.42"/>
<circle cx="464" cy="237" r="1.2" fill="#ffffff" opacity="0.99"/>
<circle cx="32" cy="252" r="0.8" fill="#ffffff" opacity="0.61"/>
<circle cx="256" cy="82" r="1.3" fill="#ffffff" opacity="0.74"/>
<circle cx="638" cy="368" r="0.8" fill="#ffffff" opacity="0.6"/>
<circle cx="538" cy="4" r="0.7" fill="#ffffff" opacity="0.57"/>
<circle cx="164" cy="113" r="1.2" fill="#ffffff" opacity="0.36"/>
<circle cx="104" cy="102" r="0.5" fill="#ffffff" opacity="0.83"/>
<circle cx="107" cy="222" r="0.5" fill="#ffffff" opacity="0.77"/>
<circle cx="464" cy="317" r="1.2" fill="#ffffff" opacity="0.57"/>
<circle cx="701" cy="215" r="1.4" fill="#ffffff" opacity="0.6"/>
<circle cx="523" cy="21" r="1.3" fill="#ffffff" opacity="0.34"/>
<circle cx="428" cy="537" r="1.3" fill="#ffffff" opacity="0.94"/>
<circle cx="679" cy="491" r="1.0" fill="#ffffff" opacity="0.66"/>
<circle cx="121" cy="375" r="0.9" fill="#ffffff" opacity="0.99"/>
<circle cx="381" cy="315" r="0.5" fill="#ffffff" opacity="0.78"/>
<circle cx="103" cy="107" r="0.9" fill="#ffffff" opacity="0.89"/>
<circle cx="688" cy="16" r="1.6" fill="#ffffff" opacity="0.34"/>
<circle cx="652" cy="497" r="1.1" fill="#ffffff" opacity="0.92"/>
<circle cx="628" cy="75" r="0.5" fill="#ffffff" opacity="0.32"/>
<circle cx="313" cy="78" r="0.8" fill="#ffffff" opacity="0.64"/>
<circle cx="118" cy="585" r="1.0" fill="#ffffff" opacity="0.8"/>
<circle cx="143" cy="353" r="1.0" fill="#ffffff" opacity="0.39"/>
<circle cx="124" cy="125" r="0.6" fill="#ffffff" opacity="0.9"/>
<circle cx="656" cy="400" r="1.7" fill="#ffffff" opacity="0.78"/>
<circle cx="25" cy="481" r="1.5" fill="#ffffff" opacity="0.81"/>
<circle cx="509" cy="297" r="1.0" fill="#ffffff" opacity="0.62"/>
<circle cx="383" cy="275" r="1.1" fill="#ffffff" opacity="0.91"/>
<circle cx="736" cy="429" r="1.7" fill="#ffffff" opacity="0.89"/>
<circle cx="303" cy="404" r="0.8" fill="#ffffff" opacity="0.64"/>
<circle cx="265" cy="561" r="1.1" fill="#ffffff" opacity="0.78"/>
<circle cx="86" cy="599" r="1.4" fill="#ffffff" opacity="0.7"/>
<circle cx="72" cy="364" r="0.7" fill="#ffffff" opacity="0.68"/>
<circle cx="426" cy="68" r="1.5" fill="#ffffff" opacity="0.94"/>
<circle cx="697" cy="38" r="0.7" fill="#ffffff" opacity="0.51"/>
<circle cx="237" cy="337" r="1.1" fill="#ffffff" opacity="0.67"/>
<circle cx="114" cy="159" r="1.2" fill="#ffffff" opacity="0.96"/>
<circle cx="773" cy="433" r="0.6" fill="#ffffff" opacity="0.66"/>
  <circle cx="656.0" cy="132.0" r="42.00000000000001" fill="#F5F2E7" opacity="0.9"/>
  <path d="M0,600 L0,432.0 L144.0,330.0 L280.0,408.00000000000006 L440.00000000000006,300.0 L576.0,396.0 L720.0,348.0 L800,420.0 L800,600 Z" fill="#050B1F" opacity="0.85"/>
  <text x="24" y="576" font-family="Arial, sans-serif" font-size="22.400000000000002" fill="#ffffff" opacity="0.55">Tinto bajo las estrellas</text>
</svg>